<svg xmlns="http://www.w3.org/2000/svg" width="38" height="60" fill="none"><path fill="#E5E5E5" d="M0 0h38v60H0z"/><g clip-path="url(#a)"><path fill="#fff" d="M-170-21h1440v2726H-170z"/><g filter="url(#b)"><path fill="#fff" d="M-170-16h1440v91.184H-170z"/><g clip-path="url(#c)"><path fill="#252420" d="M19 0 0 13.646V48.65l10.534 10.534-.232-36.764L19 15.308l8.698 7.112-.232 36.764L38 48.65V13.646L19 0Z"/><path fill="#FF7401" d="M25.994 29.592 19 33.791l-6.994-4.199v12.259L19 46.055l6.994-4.204V29.592Z"/></g></g></g><defs><clipPath id="a"><path fill="#fff" d="M-170-21h1440v2726H-170z"/></clipPath><clipPath id="c"><path fill="#fff" d="M0 0h38v59.184H0z"/></clipPath><filter id="b" width="1460" height="111.184" x="-180" y="-22" color-interpolation-filters="sRGB" filterUnits="userSpaceOnUse"><feFlood flood-opacity="0" result="BackgroundImageFix"/><feColorMatrix in="SourceAlpha" result="hardAlpha" values="0 0 0 0 0 0 0 0 0 0 0 0 0 0 0 0 0 0 127 0"/><feOffset dy="4"/><feGaussianBlur stdDeviation="5"/><feComposite in2="hardAlpha" operator="out"/><feColorMatrix values="0 0 0 0 0 0 0 0 0 0 0 0 0 0 0 0 0 0 0.05 0"/><feBlend in2="BackgroundImageFix" result="effect1_dropShadow_0_1"/><feBlend in="SourceGraphic" in2="effect1_dropShadow_0_1" result="shape"/></filter></defs></svg>